<svg width="24" height="24" viewBox="0 0 24 24" fill="none" xmlns="http://www.w3.org/2000/svg">
<path d="M10.5781 0H0.405084C0.297649 0 0.194615 0.0426523 0.118647 0.118574C0.0426784 0.194495 0 0.297467 0 0.404836V10.5716H3.83615V3.8392H10.5781V0Z" fill="black"/>
<path d="M10.5781 13.376H0V23.5414C0 23.6488 0.0426784 23.7517 0.118647 23.8277C0.194615 23.9036 0.297649 23.9462 0.405084 23.9462H3.83615V17.2138H10.5781V13.376Z" fill="black"/>
<path d="M20.1042 0H13.3677V10.5716H17.2038V3.8392H20.0988V10.5716H23.9404V0.404836C23.9404 0.297467 23.8977 0.194495 23.8217 0.118574C23.7458 0.0426523 23.6427 0 23.5353 0H20.1042Z" fill="black"/>
<path d="M23.9998 22.0311L19.1793 17.2136H23.9444V13.3744H17.2079H13.3677V17.2136V23.9447H17.2079V19.1824L22.0297 24L23.9998 22.0311Z" fill="black"/>
</svg>
